<?xml version="1.0" standalone="no"?>
<!DOCTYPE svg PUBLIC "-//W3C//DTD SVG 20010904//EN"
 "http://www.w3.org/TR/2001/REC-SVG-20010904/DTD/svg10.dtd">
<svg version="1.0" xmlns="http://www.w3.org/2000/svg"
 width="1280.000000pt" height="741.000000pt" viewBox="0 0 1280.000000 741.000000"
 preserveAspectRatio="xMidYMid meet">
<metadata>
Created by potrace 1.15, written by Peter Selinger 2001-2017
</metadata>
<g transform="translate(0.000000,741.000000) scale(0.100000,-0.100000)"
fill="#000000" stroke="none">
<path d="M1577 6980 c-205 -52 -413 -311 -590 -735 -29 -71 -64 -160 -77 -197
l-24 -68 -167 0 -168 0 -5 -42 c-3 -24 -15 -182 -26 -353 -38 -590 -179 -2680
-184 -2727 l-5 -48 1434 0 1435 0 -1 48 c0 26 -44 738 -97 1582 l-97 1535
-176 3 -176 2 -43 118 c-166 459 -359 755 -555 852 -73 36 -74 36 -270 29 -16
0 -61 2 -100 5 -38 3 -87 1 -108 -4z m517 -239 c123 -118 252 -351 366 -659
l38 -103 -41 3 -42 3 -46 125 c-109 296 -228 527 -342 664 -32 39 -35 46 -16
36 13 -8 50 -38 83 -69z m-607 -13 c-112 -147 -224 -367 -328 -643 l-38 -100
-40 -3 -40 -3 18 53 c94 266 244 544 366 677 34 38 110 101 122 101 2 0 -25
-37 -60 -82z m363 24 c103 -91 244 -334 347 -597 28 -71 54 -140 57 -152 l7
-23 -490 0 c-292 0 -491 4 -491 9 0 20 110 282 163 386 56 113 155 266 205
320 15 17 49 49 76 72 54 48 55 48 126 -15z"/>
<path d="M4650 6972 c-227 -75 -454 -394 -630 -882 l-38 -105 -171 -3 c-106
-1 -171 -6 -171 -13 0 -5 -47 -706 -105 -1556 -58 -851 -105 -1559 -105 -1575
l0 -28 1435 0 1435 0 -5 53 c-3 28 -37 556 -75 1172 -39 616 -82 1293 -95
1504 -14 211 -25 397 -25 412 l0 29 -178 0 -179 0 -12 43 c-26 85 -125 325
-184 442 -124 249 -265 419 -402 486 -71 35 -113 40 -255 30 -25 -2 -76 0
-115 3 -54 5 -83 2 -125 -12z m587 -282 c99 -118 192 -293 297 -557 31 -78 56
-144 56 -147 0 -3 -17 -6 -39 -6 -37 0 -39 2 -56 48 -101 274 -204 496 -294
635 -34 53 -69 101 -77 108 -8 7 -20 21 -26 32 -20 38 82 -46 139 -113z m-602
102 c-6 -4 -27 -28 -47 -54 -113 -140 -255 -423 -354 -705 -18 -51 -20 -53
-56 -53 -21 0 -38 4 -38 10 0 19 89 238 138 340 97 202 209 364 301 436 30 24
57 41 60 38 3 -3 1 -8 -4 -12z m336 -69 c64 -66 139 -181 209 -321 56 -112
152 -340 166 -396 l6 -26 -490 0 -491 0 18 53 c113 326 303 646 445 749 38 28
39 28 65 9 14 -11 47 -41 72 -68z"/>
<path d="M7765 6973 c-183 -66 -341 -247 -498 -572 -40 -81 -94 -209 -122
-284 l-50 -136 -170 -3 -170 -3 -101 -1500 c-56 -825 -104 -1537 -108 -1582
l-6 -83 1435 0 c1381 0 1435 1 1435 18 0 10 -22 374 -50 808 -27 434 -70 1115
-95 1514 -25 399 -47 749 -51 778 l-5 52 -173 0 -173 0 -18 48 c-56 152 -115
293 -171 410 -181 380 -387 569 -594 547 -82 -9 -98 -9 -190 -1 -59 5 -86 3
-125 -11z m537 -231 c72 -68 150 -184 227 -337 57 -113 152 -341 167 -399 6
-25 4 -26 -34 -26 -35 0 -41 3 -47 28 -14 57 -119 312 -180 437 -64 132 -138
254 -203 334 -31 38 -32 42 -11 31 13 -8 50 -38 81 -68z m-573 31 c-112 -128
-262 -412 -359 -683 l-38 -105 -42 -3 c-38 -3 -42 -1 -35 15 4 10 18 48 31 85
103 282 253 540 386 663 77 71 109 87 57 28z m345 -37 c118 -118 262 -382 366
-671 10 -27 21 -58 25 -67 7 -17 -20 -18 -484 -18 -305 0 -491 4 -491 10 0 23
95 252 153 369 99 199 200 341 292 411 58 45 60 44 139 -34z"/>
<path d="M10815 6969 c-76 -26 -168 -92 -235 -166 -136 -150 -293 -444 -396
-740 l-29 -83 -168 0 c-125 0 -169 -3 -171 -12 -3 -7 -50 -695 -106 -1528 -55
-833 -103 -1541 -107 -1572 l-6 -58 1437 0 c1153 0 1436 3 1436 13 0 7 -20
330 -45 717 -24 388 -67 1067 -95 1510 -27 443 -52 833 -56 867 l-6 63 -175 2
-175 3 -33 90 c-55 155 -85 226 -155 370 -130 268 -260 429 -407 502 -81 40
-83 40 -270 32 -16 -1 -62 2 -103 5 -62 6 -85 3 -135 -15z m538 -219 c111
-101 241 -326 352 -608 30 -78 55 -146 55 -152 0 -5 -17 -10 -39 -10 l-38 0
-38 108 c-103 291 -229 536 -353 691 -45 55 -17 42 61 -29z m-564 23 c-116
-133 -262 -417 -383 -745 -17 -46 -19 -48 -57 -48 -21 0 -39 3 -39 6 0 20 123
309 171 402 84 163 142 246 235 340 84 83 134 114 73 45z m345 -40 c32 -32 82
-94 112 -139 63 -95 176 -325 232 -474 22 -58 43 -113 47 -122 7 -17 -20 -18
-485 -18 l-492 0 6 27 c13 48 78 206 133 322 97 202 208 364 305 440 59 47 58
47 142 -36z"/>
<path d="M2330 1730 l0 -810 110 0 110 0 0 433 0 432 43 26 c119 75 227 109
341 109 149 0 218 -43 253 -158 15 -50 17 -106 18 -449 l0 -393 113 0 113 0
-3 433 c-3 420 -4 434 -26 497 -59 167 -174 245 -377 257 -145 8 -298 -37
-430 -126 l-45 -30 -2 292 -3 292 -107 3 -108 3 0 -811z"/>
<path d="M978 2480 c-141 -25 -268 -84 -354 -163 -180 -164 -158 -447 45 -583
89 -60 214 -98 446 -134 290 -44 389 -73 437 -127 28 -31 48 -89 48 -140 -1
-124 -95 -212 -268 -248 -89 -19 -283 -19 -380 0 -148 30 -319 97 -417 164
-16 12 -33 21 -37 21 -5 0 -8 -58 -8 -129 l0 -130 58 -21 c96 -36 271 -78 382
-90 165 -20 393 -8 505 25 180 53 301 141 366 266 33 61 34 69 34 174 0 100
-2 115 -28 167 -34 69 -89 118 -182 163 -91 44 -183 66 -447 110 -291 48 -358
73 -405 153 -56 95 -23 218 74 279 93 58 166 75 324 74 192 0 393 -52 533
-136 32 -19 60 -35 62 -35 2 0 4 56 4 125 l0 124 -82 25 c-177 54 -262 67
-468 71 -107 2 -216 0 -242 -5z"/>
<path d="M8804 2467 c-3 -8 -4 -54 -2 -103 l3 -89 123 -3 122 -3 0 106 0 105
-120 0 c-91 0 -122 -3 -126 -13z"/>
<path d="M4325 2094 c-151 -32 -292 -132 -362 -255 -59 -103 -78 -187 -78
-344 0 -106 5 -155 19 -200 61 -202 203 -339 406 -391 88 -23 272 -23 360 1
205 54 358 209 406 411 21 91 21 267 0 358 -52 219 -210 374 -431 421 -88 18
-229 18 -320 -1z m301 -175 c89 -27 170 -104 203 -193 55 -148 48 -361 -16
-489 -68 -136 -223 -206 -394 -178 -160 26 -255 119 -295 287 -20 84 -14 272
10 351 34 109 119 195 225 227 70 22 187 20 267 -5z"/>
<path d="M6073 2095 c-62 -14 -199 -74 -260 -115 l-33 -22 0 61 0 61 -110 0
-110 0 0 -795 0 -795 110 0 110 0 0 241 c0 226 1 241 18 234 132 -54 282 -81
387 -70 310 33 514 255 532 580 14 262 -84 485 -253 577 -101 55 -257 72 -391
43z m257 -211 c103 -58 148 -156 157 -339 11 -229 -57 -369 -216 -444 -52 -24
-65 -26 -191 -25 -119 0 -145 4 -217 28 l-83 27 0 329 0 329 28 19 c42 30 104
59 184 87 63 22 87 25 178 23 96 -3 110 -6 160 -34z"/>
<path d="M7703 2095 c-62 -14 -199 -74 -260 -115 l-33 -22 0 61 0 61 -110 0
-110 0 0 -795 0 -795 110 0 110 0 0 241 c0 226 1 241 18 234 132 -54 282 -81
387 -70 310 33 514 255 532 580 14 262 -84 485 -253 577 -101 55 -257 72 -391
43z m257 -211 c99 -56 146 -153 157 -324 14 -233 -57 -384 -216 -459 -52 -24
-65 -26 -191 -25 -119 0 -145 4 -217 28 l-83 27 0 329 0 329 28 19 c42 30 104
59 184 87 63 22 87 25 178 23 96 -3 110 -6 160 -34z"/>
<path d="M10124 2096 c-70 -16 -194 -71 -259 -115 l-45 -30 0 64 0 65 -110 0
-110 0 0 -580 0 -580 110 0 110 0 0 433 0 433 54 33 c105 63 201 94 308 99
147 7 216 -24 262 -115 26 -52 36 -197 36 -550 l0 -333 111 0 110 0 -3 433
c-4 415 -5 435 -26 497 -40 118 -123 201 -237 236 -69 22 -235 27 -311 10z"/>
<path d="M11592 2090 c-218 -59 -364 -205 -418 -420 -25 -98 -15 -310 18 -405
84 -241 293 -360 571 -325 103 13 166 34 260 90 l69 40 -4 -108 c-3 -92 -7
-115 -29 -157 -56 -110 -154 -150 -359 -149 -119 2 -151 6 -269 36 -92 24
-134 31 -137 23 -3 -6 -4 -52 -2 -101 l3 -89 85 -19 c67 -14 130 -19 295 -20
194 -1 216 1 285 22 103 33 162 66 219 127 58 62 95 131 118 222 15 60 17 134
18 643 l0 575 -105 0 c-102 0 -105 -1 -108 -23 -3 -18 -8 -22 -20 -16 -117 49
-192 67 -302 71 -92 2 -130 -1 -188 -17z m418 -192 l75 -24 3 -321 2 -321 -52
-30 c-108 -61 -170 -77 -313 -77 -122 0 -133 2 -182 27 -104 55 -144 143 -151
330 -4 109 -1 136 17 197 35 115 118 200 230 236 73 23 275 15 371 -17z"/>
<path d="M8820 1500 l0 -580 110 0 110 0 0 580 0 580 -110 0 -110 0 0 -580z"/>
</g>
</svg>
